<svg xmlns="http://www.w3.org/2000/svg" xmlns:xlink="http://www.w3.org/1999/xlink" xmlns:s="https://github.com/nturley/netlistsvg" width="669" height="1394.5">
  <style>svg {
    stroke:#000;
    fill:none;
  }
  text {
    fill:#000;
    stroke:none;
    font-size:10px;
    font-weight: bold;
    font-family: "Courier New", monospace;
  }
  .nodelabel {
    text-anchor: middle;
  }
  .inputPortLabel {
    text-anchor: end;
  }
  .splitjoinBody {
    fill:#000;
  }</style>
  <g s:type="add" transform="translate(189.33333333333334,727.5)" s:width="25" s:height="25" id="cell_$add$alu.sv:12$3">
    <s:alias val="$add"/>
    <circle r="12.5" cx="12.5" cy="12.5" class="cell_$add$alu.sv:12$3"/>
    <line x1="7.5" x2="17.5" y1="12.5" y2="12.5" class="cell_$add$alu.sv:12$3"/>
    <line x1="12.5" x2="12.5" y1="7.5" y2="17.5" class="cell_$add$alu.sv:12$3"/>
    <g s:x="3" s:y="5" s:pid="A"/>
    <g s:x="3" s:y="20" s:pid="B"/>
    <g s:x="25" s:y="12.5" s:pid="Y"/>
  </g>
  <g s:type="and" transform="translate(368.6666666666667,12)" s:width="30" s:height="25" id="cell_$and$alu.sv:19$15">
    <s:alias val="$and"/>
    <s:alias val="$logic_and"/>
    <s:alias val="$_AND_"/>
    <path d="M0,0 L0,25 L15,25 A15 12.5 0 0 0 15,0 Z" class="cell_$and$alu.sv:19$15"/>
    <g s:x="0" s:y="5" s:pid="A"/>
    <g s:x="0" s:y="20" s:pid="B"/>
    <g s:x="30" s:y="12.5" s:pid="Y"/>
  </g>
  <g s:type="lt" transform="translate(189.33333333333334,653.5)" s:width="25" s:height="25" id="cell_$lt$alu.sv:14$6">
    <s:alias val="$lt"/>
    <circle r="12.5" cx="12.5" cy="12.5" class="cell_$lt$alu.sv:14$6"/>
    <line x1="7.5" x2="17.5" y1="12.5" y2="7.5" class="cell_$lt$alu.sv:14$6"/>
    <line x1="7.5" x2="17.5" y1="12.5" y2="17.5" class="cell_$lt$alu.sv:14$6"/>
    <g s:x="3" s:y="5" s:pid="A"/>
    <g s:x="3" s:y="20" s:pid="B"/>
    <g s:x="25" s:y="12.5" s:pid="Y"/>
  </g>
  <g s:type="lt" transform="translate(189.33333333333334,341)" s:width="25" s:height="25" id="cell_$lt$alu.sv:15$8">
    <s:alias val="$lt"/>
    <circle r="12.5" cx="12.5" cy="12.5" class="cell_$lt$alu.sv:15$8"/>
    <line x1="7.5" x2="17.5" y1="12.5" y2="7.5" class="cell_$lt$alu.sv:15$8"/>
    <line x1="7.5" x2="17.5" y1="12.5" y2="17.5" class="cell_$lt$alu.sv:15$8"/>
    <g s:x="3" s:y="5" s:pid="A"/>
    <g s:x="3" s:y="20" s:pid="B"/>
    <g s:x="25" s:y="12.5" s:pid="Y"/>
  </g>
  <g s:type="or" transform="translate(368.6666666666667,72)" s:width="30" s:height="25" id="cell_$or$alu.sv:18$14">
    <s:alias val="$or"/>
    <s:alias val="$logic_or"/>
    <s:alias val="$_OR_"/>
    <path d="M0,25 L0,25 L15,25 A15 12.5 0 0 0 15,0 L0,0" class="cell_$or$alu.sv:18$14"/>
    <path d="M0,0 A30 25 0 0 1 0,25" class="cell_$or$alu.sv:18$14"/>
    <g s:x="3" s:y="5" s:pid="A"/>
    <g s:x="3" s:y="20" s:pid="B"/>
    <g s:x="30" s:y="12.5" s:pid="Y"/>
  </g>
  <g s:type="mux" transform="translate(566,556.5)" s:width="20" s:height="40" id="cell_$procmux$16">
    <s:alias val="$pmux"/>
    <s:alias val="$mux"/>
    <s:alias val="$_MUX_"/>
    <path d="M0,0 L20,10 L20,30 L0,40 Z" class="cell_$procmux$16"/>
    <g s:x="0" s:y="10" s:pid="A"/>
    <g s:x="0" s:y="30" s:pid="B"/>
    <g s:x="10" s:y="35" s:pid="S"/>
    <g s:x="20" s:y="20" s:pid="Y"/>
  </g>
  <g s:type="eq" transform="translate(370.3333333333333,847.5)" s:width="25" s:height="25" id="cell_$procmux$17_CMP0">
    <s:alias val="$eq"/>
    <circle r="12.5" cx="12.5" cy="12.5" class="cell_$procmux$17_CMP0"/>
    <line x1="7.5" x2="17.5" y1="10" y2="10" class="cell_$procmux$17_CMP0"/>
    <line x1="7.5" x2="17.5" y1="15" y2="15" class="cell_$procmux$17_CMP0"/>
    <g s:x="3" s:y="5" s:pid="A"/>
    <g s:x="3" s:y="20" s:pid="B"/>
    <g s:x="25" s:y="12.5" s:pid="Y"/>
  </g>
  <g s:type="eq" transform="translate(370.3333333333333,912.5)" s:width="25" s:height="25" id="cell_$procmux$18_CMP0">
    <s:alias val="$eq"/>
    <circle r="12.5" cx="12.5" cy="12.5" class="cell_$procmux$18_CMP0"/>
    <line x1="7.5" x2="17.5" y1="10" y2="10" class="cell_$procmux$18_CMP0"/>
    <line x1="7.5" x2="17.5" y1="15" y2="15" class="cell_$procmux$18_CMP0"/>
    <g s:x="3" s:y="5" s:pid="A"/>
    <g s:x="3" s:y="20" s:pid="B"/>
    <g s:x="25" s:y="12.5" s:pid="Y"/>
  </g>
  <g s:type="eq" transform="translate(370.3333333333333,977.5)" s:width="25" s:height="25" id="cell_$procmux$19_CMP0">
    <s:alias val="$eq"/>
    <circle r="12.5" cx="12.5" cy="12.5" class="cell_$procmux$19_CMP0"/>
    <line x1="7.5" x2="17.5" y1="10" y2="10" class="cell_$procmux$19_CMP0"/>
    <line x1="7.5" x2="17.5" y1="15" y2="15" class="cell_$procmux$19_CMP0"/>
    <g s:x="3" s:y="5" s:pid="A"/>
    <g s:x="3" s:y="20" s:pid="B"/>
    <g s:x="25" s:y="12.5" s:pid="Y"/>
  </g>
  <g s:type="eq" transform="translate(370.3333333333333,1107.5)" s:width="25" s:height="25" id="cell_$procmux$20_CMP0">
    <s:alias val="$eq"/>
    <circle r="12.5" cx="12.5" cy="12.5" class="cell_$procmux$20_CMP0"/>
    <line x1="7.5" x2="17.5" y1="10" y2="10" class="cell_$procmux$20_CMP0"/>
    <line x1="7.5" x2="17.5" y1="15" y2="15" class="cell_$procmux$20_CMP0"/>
    <g s:x="3" s:y="5" s:pid="A"/>
    <g s:x="3" s:y="20" s:pid="B"/>
    <g s:x="25" s:y="12.5" s:pid="Y"/>
  </g>
  <g s:type="eq" transform="translate(370.3333333333333,1172.5)" s:width="25" s:height="25" id="cell_$procmux$21_CMP0">
    <s:alias val="$eq"/>
    <circle r="12.5" cx="12.5" cy="12.5" class="cell_$procmux$21_CMP0"/>
    <line x1="7.5" x2="17.5" y1="10" y2="10" class="cell_$procmux$21_CMP0"/>
    <line x1="7.5" x2="17.5" y1="15" y2="15" class="cell_$procmux$21_CMP0"/>
    <g s:x="3" s:y="5" s:pid="A"/>
    <g s:x="3" s:y="20" s:pid="B"/>
    <g s:x="25" s:y="12.5" s:pid="Y"/>
  </g>
  <g s:type="eq" transform="translate(370.3333333333333,1237.5)" s:width="25" s:height="25" id="cell_$procmux$22_CMP0">
    <s:alias val="$eq"/>
    <circle r="12.5" cx="12.5" cy="12.5" class="cell_$procmux$22_CMP0"/>
    <line x1="7.5" x2="17.5" y1="10" y2="10" class="cell_$procmux$22_CMP0"/>
    <line x1="7.5" x2="17.5" y1="15" y2="15" class="cell_$procmux$22_CMP0"/>
    <g s:x="3" s:y="5" s:pid="A"/>
    <g s:x="3" s:y="20" s:pid="B"/>
    <g s:x="25" s:y="12.5" s:pid="Y"/>
  </g>
  <g s:type="eq" transform="translate(370.3333333333333,1302.5)" s:width="25" s:height="25" id="cell_$procmux$23_CMP0">
    <s:alias val="$eq"/>
    <circle r="12.5" cx="12.5" cy="12.5" class="cell_$procmux$23_CMP0"/>
    <line x1="7.5" x2="17.5" y1="10" y2="10" class="cell_$procmux$23_CMP0"/>
    <line x1="7.5" x2="17.5" y1="15" y2="15" class="cell_$procmux$23_CMP0"/>
    <g s:x="3" s:y="5" s:pid="A"/>
    <g s:x="3" s:y="20" s:pid="B"/>
    <g s:x="25" s:y="12.5" s:pid="Y"/>
  </g>
  <g s:type="not" transform="translate(378.5,1362.5)" s:width="30" s:height="20" id="cell_$procmux$24_CMP0">
    <s:alias val="$_NOT_"/>
    <s:alias val="$not"/>
    <s:alias val="$logic_not"/>
    <path d="M0,0 L0,20 L20,10 Z" class="cell_$procmux$24_CMP0"/>
    <circle cx="23" cy="10" r="3" class="cell_$procmux$24_CMP0"/>
    <g s:x="0" s:y="10" s:pid="A"/>
    <g s:x="25" s:y="10" s:pid="Y"/>
  </g>
  <g s:type="generic" transform="translate(349,686)" s:width="30" s:height="40" id="cell_$shl$alu.sv:13$5">
    <text x="15" y="-4" class="nodelabel cell_$shl$alu.sv:13$5" s:attribute="ref">$shl</text>
    <rect width="30" height="40" s:generic="body" class="cell_$shl$alu.sv:13$5"/>
    <g transform="translate(0,10)" s:x="0" s:y="10" s:pid="in0" id="port_$shl$alu.sv:13$5~A">
      <text x="-3" y="-4" class="inputPortLabel cell_$shl$alu.sv:13$5">A</text>
    </g>
    <g transform="translate(0,30)" s:x="0" s:y="10" s:pid="in0" id="port_$shl$alu.sv:13$5~B">
      <text x="-3" y="-4" class="inputPortLabel cell_$shl$alu.sv:13$5">B</text>
    </g>
    <g transform="translate(30,10)" s:x="30" s:y="10" s:pid="out0" id="port_$shl$alu.sv:13$5~Y">
      <text x="5" y="-4" style="fill:#000; stroke:none" class="cell_$shl$alu.sv:13$5">Y</text>
    </g>
  </g>
  <g s:type="generic" transform="translate(170,113)" s:width="30" s:height="40" id="cell_$shr$alu.sv:17$12">
    <text x="15" y="-4" class="nodelabel cell_$shr$alu.sv:17$12" s:attribute="ref">$shr</text>
    <rect width="30" height="40" s:generic="body" class="cell_$shr$alu.sv:17$12"/>
    <g transform="translate(0,10)" s:x="0" s:y="10" s:pid="in0" id="port_$shr$alu.sv:17$12~A">
      <text x="-3" y="-4" class="inputPortLabel cell_$shr$alu.sv:17$12">A</text>
    </g>
    <g transform="translate(0,30)" s:x="0" s:y="10" s:pid="in0" id="port_$shr$alu.sv:17$12~B">
      <text x="-3" y="-4" class="inputPortLabel cell_$shr$alu.sv:17$12">B</text>
    </g>
    <g transform="translate(30,10)" s:x="30" s:y="10" s:pid="out0" id="port_$shr$alu.sv:17$12~Y">
      <text x="5" y="-4" style="fill:#000; stroke:none" class="cell_$shr$alu.sv:17$12">Y</text>
    </g>
  </g>
  <g s:type="generic" transform="translate(164,201)" s:width="30" s:height="40" id="cell_$sshr$alu.sv:17$11">
    <text x="15" y="-4" class="nodelabel cell_$sshr$alu.sv:17$11" s:attribute="ref">$sshr</text>
    <rect width="30" height="40" s:generic="body" class="cell_$sshr$alu.sv:17$11"/>
    <g transform="translate(0,10)" s:x="0" s:y="10" s:pid="in0" id="port_$sshr$alu.sv:17$11~A">
      <text x="-3" y="-4" class="inputPortLabel cell_$sshr$alu.sv:17$11">A</text>
    </g>
    <g transform="translate(0,30)" s:x="0" s:y="10" s:pid="in0" id="port_$sshr$alu.sv:17$11~B">
      <text x="-3" y="-4" class="inputPortLabel cell_$sshr$alu.sv:17$11">B</text>
    </g>
    <g transform="translate(30,10)" s:x="30" s:y="10" s:pid="out0" id="port_$sshr$alu.sv:17$11~Y">
      <text x="5" y="-4" style="fill:#000; stroke:none" class="cell_$sshr$alu.sv:17$11">Y</text>
    </g>
  </g>
  <g s:type="sub" transform="translate(189.33333333333334,787.5)" s:width="25" s:height="25" id="cell_$sub$alu.sv:12$2">
    <s:alias val="$sub"/>
    <circle r="12.5" cx="12.5" cy="12.5" class="cell_$sub$alu.sv:12$2"/>
    <line x1="7.5" x2="17.5" y1="12.5" y2="12.5" class="cell_$sub$alu.sv:12$2"/>
    <g s:x="3" s:y="5" s:pid="A"/>
    <g s:x="3" s:y="20" s:pid="B"/>
    <g s:x="25" s:y="12.5" s:pid="Y"/>
  </g>
  <g s:type="mux" transform="translate(372,770)" s:width="20" s:height="40" id="cell_$ternary$alu.sv:12$4">
    <s:alias val="$pmux"/>
    <s:alias val="$mux"/>
    <s:alias val="$_MUX_"/>
    <path d="M0,0 L20,10 L20,30 L0,40 Z" class="cell_$ternary$alu.sv:12$4"/>
    <g s:x="0" s:y="10" s:pid="A"/>
    <g s:x="0" s:y="30" s:pid="B"/>
    <g s:x="10" s:y="35" s:pid="S"/>
    <g s:x="20" s:y="20" s:pid="Y"/>
  </g>
  <g s:type="mux" transform="translate(372,616)" s:width="20" s:height="40" id="cell_$ternary$alu.sv:14$7">
    <s:alias val="$pmux"/>
    <s:alias val="$mux"/>
    <s:alias val="$_MUX_"/>
    <path d="M0,0 L20,10 L20,30 L0,40 Z" class="cell_$ternary$alu.sv:14$7"/>
    <g s:x="0" s:y="10" s:pid="A"/>
    <g s:x="0" s:y="30" s:pid="B"/>
    <g s:x="10" s:y="35" s:pid="S"/>
    <g s:x="20" s:y="20" s:pid="Y"/>
  </g>
  <g s:type="mux" transform="translate(372,556)" s:width="20" s:height="40" id="cell_$ternary$alu.sv:15$9">
    <s:alias val="$pmux"/>
    <s:alias val="$mux"/>
    <s:alias val="$_MUX_"/>
    <path d="M0,0 L20,10 L20,30 L0,40 Z" class="cell_$ternary$alu.sv:15$9"/>
    <g s:x="0" s:y="10" s:pid="A"/>
    <g s:x="0" s:y="30" s:pid="B"/>
    <g s:x="10" s:y="35" s:pid="S"/>
    <g s:x="20" s:y="20" s:pid="Y"/>
  </g>
  <g s:type="mux" transform="translate(372,181.5)" s:width="20" s:height="40" id="cell_$ternary$alu.sv:17$13">
    <s:alias val="$pmux"/>
    <s:alias val="$mux"/>
    <s:alias val="$_MUX_"/>
    <path d="M0,0 L20,10 L20,30 L0,40 Z" class="cell_$ternary$alu.sv:17$13"/>
    <g s:x="0" s:y="10" s:pid="A"/>
    <g s:x="0" s:y="30" s:pid="B"/>
    <g s:x="10" s:y="35" s:pid="S"/>
    <g s:x="20" s:y="20" s:pid="Y"/>
  </g>
  <g s:type="reduce_xor" transform="translate(367.6666666666667,496)" s:width="33" s:height="25" id="cell_$xor$alu.sv:16$10">
    <s:alias val="$xor"/>
    <s:alias val="$reduce_xor"/>
    <s:alias val="$_XOR_"/>
    <path d="M3,0 A30 25 0 0 1 3,25 A30 25 0 0 0 33,12.5 A30 25 0 0 0 3,0" class="cell_$xor$alu.sv:16$10"/>
    <path d="M0,0 A30 25 0 0 1 0,25" class="cell_$xor$alu.sv:16$10"/>
    <g s:x="3" s:y="5" s:pid="A"/>
    <g s:x="3" s:y="20" s:pid="B"/>
    <g s:x="33" s:y="12.5" s:pid="Y"/>
  </g>
  <g s:type="inputExt" transform="translate(77,166)" s:width="30" s:height="20" id="cell_a">
    <text x="15" y="-4" class="nodelabel cell_a" s:attribute="ref">a</text>
    <s:alias val="$_inputExt_"/>
    <path d="M0,0 L0,20 L15,20 L30,10 L15,0 Z" class="cell_a"/>
    <g s:x="28" s:y="10" s:pid="Y"/>
  </g>
  <g s:type="inputExt" transform="translate(12,663.5)" s:width="30" s:height="20" id="cell_b">
    <text x="15" y="-4" class="nodelabel cell_b" s:attribute="ref">b</text>
    <s:alias val="$_inputExt_"/>
    <path d="M0,0 L0,20 L15,20 L30,10 L15,0 Z" class="cell_b"/>
    <g s:x="28" s:y="10" s:pid="Y"/>
  </g>
  <g s:type="inputExt" transform="translate(164,1052.5)" s:width="30" s:height="20" id="cell_funct3">
    <text x="15" y="-4" class="nodelabel cell_funct3" s:attribute="ref">funct3</text>
    <s:alias val="$_inputExt_"/>
    <path d="M0,0 L0,20 L15,20 L30,10 L15,0 Z" class="cell_funct3"/>
    <g s:x="28" s:y="10" s:pid="Y"/>
  </g>
  <g s:type="inputExt" transform="translate(164,476)" s:width="30" s:height="20" id="cell_mod">
    <text x="15" y="-4" class="nodelabel cell_mod" s:attribute="ref">mod</text>
    <s:alias val="$_inputExt_"/>
    <path d="M0,0 L0,20 L15,20 L30,10 L15,0 Z" class="cell_mod"/>
    <g s:x="28" s:y="10" s:pid="Y"/>
  </g>
  <g s:type="outputExt" transform="translate(621,566.5)" s:width="30" s:height="20" id="cell_result">
    <text x="15" y="-4" class="nodelabel cell_result" s:attribute="ref">result</text>
    <s:alias val="$_outputExt_"/>
    <path d="M30,0 L30,20 L15,20 L0,10 L15,0 Z" class="cell_result"/>
    <g s:x="0" s:y="10" s:pid="A"/>
  </g>
  <g s:type="constant" transform="translate(164,857.5)" s:width="30" s:height="20" id="cell_111">
    <text x="15" y="-4" class="nodelabel cell_111" s:attribute="ref">111</text>
    <s:alias val="$_constant_"/>
    <rect width="30" height="20" class="cell_111"/>
    <g s:x="30" s:y="10" s:pid="Y"/>
  </g>
  <g s:type="constant" transform="translate(164,922.5)" s:width="30" s:height="20" id="cell_110">
    <text x="15" y="-4" class="nodelabel cell_110" s:attribute="ref">110</text>
    <s:alias val="$_constant_"/>
    <rect width="30" height="20" class="cell_110"/>
    <g s:x="30" s:y="10" s:pid="Y"/>
  </g>
  <g s:type="constant" transform="translate(164,987.5)" s:width="30" s:height="20" id="cell_101">
    <text x="15" y="-4" class="nodelabel cell_101" s:attribute="ref">101</text>
    <s:alias val="$_constant_"/>
    <rect width="30" height="20" class="cell_101"/>
    <g s:x="30" s:y="10" s:pid="Y"/>
  </g>
  <g s:type="constant" transform="translate(164,1117.5)" s:width="30" s:height="20" id="cell_100">
    <text x="15" y="-4" class="nodelabel cell_100" s:attribute="ref">100</text>
    <s:alias val="$_constant_"/>
    <rect width="30" height="20" class="cell_100"/>
    <g s:x="30" s:y="10" s:pid="Y"/>
  </g>
  <g s:type="constant" transform="translate(164,1182.5)" s:width="30" s:height="20" id="cell_011">
    <text x="15" y="-4" class="nodelabel cell_011" s:attribute="ref">011</text>
    <s:alias val="$_constant_"/>
    <rect width="30" height="20" class="cell_011"/>
    <g s:x="30" s:y="10" s:pid="Y"/>
  </g>
  <g s:type="constant" transform="translate(164,1247.5)" s:width="30" s:height="20" id="cell_010">
    <text x="15" y="-4" class="nodelabel cell_010" s:attribute="ref">010</text>
    <s:alias val="$_constant_"/>
    <rect width="30" height="20" class="cell_010"/>
    <g s:x="30" s:y="10" s:pid="Y"/>
  </g>
  <g s:type="constant" transform="translate(164,1312.5)" s:width="30" s:height="20" id="cell_001">
    <text x="15" y="-4" class="nodelabel cell_001" s:attribute="ref">001</text>
    <s:alias val="$_constant_"/>
    <rect width="30" height="20" class="cell_001"/>
    <g s:x="30" s:y="10" s:pid="Y"/>
  </g>
  <g s:type="constant" transform="translate(164,286)" s:width="30" s:height="20" id="cell_00000000000000000000000000000000">
    <text x="15" y="-4" class="nodelabel cell_00000000000000000000000000000000" s:attribute="ref">0x0</text>
    <s:alias val="$_constant_"/>
    <rect width="30" height="20" class="cell_00000000000000000000000000000000"/>
    <g s:x="30" s:y="10" s:pid="Y"/>
  </g>
  <g s:type="constant" transform="translate(164,411)" s:width="30" s:height="20" id="cell_00000000000000000000000000000001">
    <text x="15" y="-4" class="nodelabel cell_00000000000000000000000000000001" s:attribute="ref">0x1</text>
    <s:alias val="$_constant_"/>
    <rect width="30" height="20" class="cell_00000000000000000000000000000001"/>
    <g s:x="30" s:y="10" s:pid="Y"/>
  </g>
  <g s:type="join" transform="translate(505,566)" s:width="4" s:height="40" id="cell_$join$,134,135,136,137,138,139,140,141,142,143,144,145,146,147,148,149,150,151,152,153,154,155,156,157,158,159,160,161,162,163,164,165,168,169,170,171,172,173,174,175,176,177,178,179,180,181,182,183,184,185,186,187,188,189,190,191,192,193,194,195,196,197,198,199,200,201,202,203,204,205,206,207,208,209,210,211,212,213,214,215,216,217,218,219,220,221,222,223,224,225,226,227,228,229,230,231,232,233,234,235,236,237,238,239,240,241,242,243,244,245,246,247,248,249,250,251,252,253,254,255,256,257,258,259,260,261,262,263,264,265,266,267,268,269,270,271,272,273,274,275,276,277,278,279,280,281,282,283,284,285,286,287,288,289,290,291,292,293,294,295,296,297,298,299,300,301,302,303,304,305,306,307,308,309,310,311,312,313,314,315,316,317,318,319,320,321,322,323,324,325,326,327,328,329,330,331,332,333,334,335,336,337,338,339,340,341,342,343,344,345,346,347,348,349,350,351,352,353,354,355,356,357,358,359,360,361,362,363,364,365,366,367,368,369,370,371,372,373,374,375,376,377,378,379,380,381,382,383,384,385,386,387,388,389,390,391,">
    <rect width="5" height="160" class="splitjoinBody" s:generic="body"/>
    <s:alias val="$_join_"/>
    <g s:x="5" s:y="20" s:pid="out"/>
    <g transform="translate(0,10)" s:x="0" s:y="10" s:pid="in0">
      <text x="-3" y="-4" class="inputPortLabel">0:31</text>
    </g>
    <g transform="translate(0,30)" s:x="0" s:y="10" s:pid="in0">
      <text x="-3" y="-4" class="inputPortLabel">32:63</text>
    </g>
    <g transform="translate(0,50)" s:x="0" s:y="10" s:pid="in0">
      <text x="-3" y="-4" class="inputPortLabel">64:95</text>
    </g>
    <g transform="translate(0,70)" s:x="0" s:y="10" s:pid="in0">
      <text x="-3" y="-4" class="inputPortLabel">96:127</text>
    </g>
    <g transform="translate(0,90)" s:x="0" s:y="10" s:pid="in0">
      <text x="-3" y="-4" class="inputPortLabel">128:159</text>
    </g>
    <g transform="translate(0,110)" s:x="0" s:y="10" s:pid="in0">
      <text x="-3" y="-4" class="inputPortLabel">160:191</text>
    </g>
    <g transform="translate(0,130)" s:x="0" s:y="10" s:pid="in0">
      <text x="-3" y="-4" class="inputPortLabel">192:223</text>
    </g>
    <g transform="translate(0,150)" s:x="0" s:y="10" s:pid="in0">
      <text x="-3" y="-4" class="inputPortLabel">224:255</text>
    </g>
  </g>
  <g s:type="join" transform="translate(508.14285714285717,1184.5)" s:width="4" s:height="40" id="cell_$join$,392,393,394,395,396,397,398,399,">
    <rect width="5" height="160" class="splitjoinBody" s:generic="body"/>
    <s:alias val="$_join_"/>
    <g s:x="5" s:y="20" s:pid="out"/>
    <g transform="translate(0,10)" s:x="0" s:y="10" s:pid="in0">
      <text x="-3" y="-4" class="inputPortLabel">0</text>
    </g>
    <g transform="translate(0,30)" s:x="0" s:y="10" s:pid="in0">
      <text x="-3" y="-4" class="inputPortLabel">1</text>
    </g>
    <g transform="translate(0,50)" s:x="0" s:y="10" s:pid="in0">
      <text x="-3" y="-4" class="inputPortLabel">2</text>
    </g>
    <g transform="translate(0,70)" s:x="0" s:y="10" s:pid="in0">
      <text x="-3" y="-4" class="inputPortLabel">3</text>
    </g>
    <g transform="translate(0,90)" s:x="0" s:y="10" s:pid="in0">
      <text x="-3" y="-4" class="inputPortLabel">4</text>
    </g>
    <g transform="translate(0,110)" s:x="0" s:y="10" s:pid="in0">
      <text x="-3" y="-4" class="inputPortLabel">5</text>
    </g>
    <g transform="translate(0,130)" s:x="0" s:y="10" s:pid="in0">
      <text x="-3" y="-4" class="inputPortLabel">6</text>
    </g>
    <g transform="translate(0,150)" s:x="0" s:y="10" s:pid="in0">
      <text x="-3" y="-4" class="inputPortLabel">7</text>
    </g>
  </g>
  <g s:type="split" transform="translate(83,221)" s:width="5" s:height="40" id="cell_$split$,34,35,36,37,38,39,40,41,42,43,44,45,46,47,48,49,50,51,52,53,54,55,56,57,58,59,60,61,62,63,64,65,">
    <rect width="5" height="20" class="splitjoinBody" s:generic="body"/>
    <s:alias val="$_split_"/>
    <g s:x="0" s:y="20" s:pid="in"/>
    <g transform="translate(4,10)" s:x="4" s:y="10" s:pid="out0">
      <text x="5" y="-4">0:4</text>
    </g>
  </g>
  <line x1="105" x2="137" y1="176" y2="176" class="net_2,3,4,5,6,7,8,9,10,11,12,13,14,15,16,17,18,19,20,21,22,23,24,25,26,27,28,29,30,31,32,33"/>
  <line x1="137" x2="137" y1="176" y2="732.5" class="net_2,3,4,5,6,7,8,9,10,11,12,13,14,15,16,17,18,19,20,21,22,23,24,25,26,27,28,29,30,31,32,33"/>
  <circle cx="137" cy="176" r="2" style="fill:#000" class="net_2,3,4,5,6,7,8,9,10,11,12,13,14,15,16,17,18,19,20,21,22,23,24,25,26,27,28,29,30,31,32,33"/>
  <circle cx="137" cy="732.5" r="2" style="fill:#000" class="net_2,3,4,5,6,7,8,9,10,11,12,13,14,15,16,17,18,19,20,21,22,23,24,25,26,27,28,29,30,31,32,33"/>
  <line x1="137" x2="192.33333333333334" y1="732.5" y2="732.5" class="net_2,3,4,5,6,7,8,9,10,11,12,13,14,15,16,17,18,19,20,21,22,23,24,25,26,27,28,29,30,31,32,33"/>
  <line x1="105" x2="137" y1="176" y2="176" class="net_2,3,4,5,6,7,8,9,10,11,12,13,14,15,16,17,18,19,20,21,22,23,24,25,26,27,28,29,30,31,32,33"/>
  <line x1="137" x2="137" y1="176" y2="17" class="net_2,3,4,5,6,7,8,9,10,11,12,13,14,15,16,17,18,19,20,21,22,23,24,25,26,27,28,29,30,31,32,33"/>
  <line x1="137" x2="368.6666666666667" y1="17" y2="17" class="net_2,3,4,5,6,7,8,9,10,11,12,13,14,15,16,17,18,19,20,21,22,23,24,25,26,27,28,29,30,31,32,33"/>
  <line x1="105" x2="137" y1="176" y2="176" class="net_2,3,4,5,6,7,8,9,10,11,12,13,14,15,16,17,18,19,20,21,22,23,24,25,26,27,28,29,30,31,32,33"/>
  <line x1="137" x2="137" y1="176" y2="658.5" class="net_2,3,4,5,6,7,8,9,10,11,12,13,14,15,16,17,18,19,20,21,22,23,24,25,26,27,28,29,30,31,32,33"/>
  <circle cx="137" cy="658.5" r="2" style="fill:#000" class="net_2,3,4,5,6,7,8,9,10,11,12,13,14,15,16,17,18,19,20,21,22,23,24,25,26,27,28,29,30,31,32,33"/>
  <line x1="137" x2="192.33333333333334" y1="658.5" y2="658.5" class="net_2,3,4,5,6,7,8,9,10,11,12,13,14,15,16,17,18,19,20,21,22,23,24,25,26,27,28,29,30,31,32,33"/>
  <line x1="105" x2="137" y1="176" y2="176" class="net_2,3,4,5,6,7,8,9,10,11,12,13,14,15,16,17,18,19,20,21,22,23,24,25,26,27,28,29,30,31,32,33"/>
  <line x1="137" x2="137" y1="176" y2="346" class="net_2,3,4,5,6,7,8,9,10,11,12,13,14,15,16,17,18,19,20,21,22,23,24,25,26,27,28,29,30,31,32,33"/>
  <circle cx="137" cy="346" r="2" style="fill:#000" class="net_2,3,4,5,6,7,8,9,10,11,12,13,14,15,16,17,18,19,20,21,22,23,24,25,26,27,28,29,30,31,32,33"/>
  <line x1="137" x2="192.33333333333334" y1="346" y2="346" class="net_2,3,4,5,6,7,8,9,10,11,12,13,14,15,16,17,18,19,20,21,22,23,24,25,26,27,28,29,30,31,32,33"/>
  <line x1="105" x2="137" y1="176" y2="176" class="net_2,3,4,5,6,7,8,9,10,11,12,13,14,15,16,17,18,19,20,21,22,23,24,25,26,27,28,29,30,31,32,33"/>
  <line x1="137" x2="137" y1="176" y2="77" class="net_2,3,4,5,6,7,8,9,10,11,12,13,14,15,16,17,18,19,20,21,22,23,24,25,26,27,28,29,30,31,32,33"/>
  <circle cx="137" cy="77" r="2" style="fill:#000" class="net_2,3,4,5,6,7,8,9,10,11,12,13,14,15,16,17,18,19,20,21,22,23,24,25,26,27,28,29,30,31,32,33"/>
  <line x1="137" x2="371.6666666666667" y1="77" y2="77" class="net_2,3,4,5,6,7,8,9,10,11,12,13,14,15,16,17,18,19,20,21,22,23,24,25,26,27,28,29,30,31,32,33"/>
  <line x1="105" x2="137" y1="176" y2="176" class="net_2,3,4,5,6,7,8,9,10,11,12,13,14,15,16,17,18,19,20,21,22,23,24,25,26,27,28,29,30,31,32,33"/>
  <line x1="137" x2="137" y1="176" y2="696.5" class="net_2,3,4,5,6,7,8,9,10,11,12,13,14,15,16,17,18,19,20,21,22,23,24,25,26,27,28,29,30,31,32,33"/>
  <circle cx="137" cy="696.5" r="2" style="fill:#000" class="net_2,3,4,5,6,7,8,9,10,11,12,13,14,15,16,17,18,19,20,21,22,23,24,25,26,27,28,29,30,31,32,33"/>
  <line x1="137" x2="349" y1="696.5" y2="696.5" class="net_2,3,4,5,6,7,8,9,10,11,12,13,14,15,16,17,18,19,20,21,22,23,24,25,26,27,28,29,30,31,32,33"/>
  <line x1="105" x2="137" y1="176" y2="176" class="net_2,3,4,5,6,7,8,9,10,11,12,13,14,15,16,17,18,19,20,21,22,23,24,25,26,27,28,29,30,31,32,33"/>
  <line x1="137" x2="137" y1="176" y2="123.5" class="net_2,3,4,5,6,7,8,9,10,11,12,13,14,15,16,17,18,19,20,21,22,23,24,25,26,27,28,29,30,31,32,33"/>
  <circle cx="137" cy="123.5" r="2" style="fill:#000" class="net_2,3,4,5,6,7,8,9,10,11,12,13,14,15,16,17,18,19,20,21,22,23,24,25,26,27,28,29,30,31,32,33"/>
  <line x1="137" x2="170" y1="123.5" y2="123.5" class="net_2,3,4,5,6,7,8,9,10,11,12,13,14,15,16,17,18,19,20,21,22,23,24,25,26,27,28,29,30,31,32,33"/>
  <line x1="105" x2="137" y1="176" y2="176" class="net_2,3,4,5,6,7,8,9,10,11,12,13,14,15,16,17,18,19,20,21,22,23,24,25,26,27,28,29,30,31,32,33"/>
  <line x1="137" x2="137" y1="176" y2="211.5" class="net_2,3,4,5,6,7,8,9,10,11,12,13,14,15,16,17,18,19,20,21,22,23,24,25,26,27,28,29,30,31,32,33"/>
  <circle cx="137" cy="211.5" r="2" style="fill:#000" class="net_2,3,4,5,6,7,8,9,10,11,12,13,14,15,16,17,18,19,20,21,22,23,24,25,26,27,28,29,30,31,32,33"/>
  <line x1="137" x2="164" y1="211.5" y2="211.5" class="net_2,3,4,5,6,7,8,9,10,11,12,13,14,15,16,17,18,19,20,21,22,23,24,25,26,27,28,29,30,31,32,33"/>
  <line x1="105" x2="137" y1="176" y2="176" class="net_2,3,4,5,6,7,8,9,10,11,12,13,14,15,16,17,18,19,20,21,22,23,24,25,26,27,28,29,30,31,32,33"/>
  <line x1="137" x2="137" y1="176" y2="792.5" class="net_2,3,4,5,6,7,8,9,10,11,12,13,14,15,16,17,18,19,20,21,22,23,24,25,26,27,28,29,30,31,32,33"/>
  <line x1="137" x2="192.33333333333334" y1="792.5" y2="792.5" class="net_2,3,4,5,6,7,8,9,10,11,12,13,14,15,16,17,18,19,20,21,22,23,24,25,26,27,28,29,30,31,32,33"/>
  <line x1="105" x2="137" y1="176" y2="176" class="net_2,3,4,5,6,7,8,9,10,11,12,13,14,15,16,17,18,19,20,21,22,23,24,25,26,27,28,29,30,31,32,33"/>
  <line x1="137" x2="137" y1="176" y2="254" class="net_2,3,4,5,6,7,8,9,10,11,12,13,14,15,16,17,18,19,20,21,22,23,24,25,26,27,28,29,30,31,32,33"/>
  <line x1="137" x2="332" y1="254" y2="254" class="net_2,3,4,5,6,7,8,9,10,11,12,13,14,15,16,17,18,19,20,21,22,23,24,25,26,27,28,29,30,31,32,33"/>
  <line x1="332" x2="332" y1="254" y2="501" class="net_2,3,4,5,6,7,8,9,10,11,12,13,14,15,16,17,18,19,20,21,22,23,24,25,26,27,28,29,30,31,32,33"/>
  <circle cx="137" cy="254" r="2" style="fill:#000" class="net_2,3,4,5,6,7,8,9,10,11,12,13,14,15,16,17,18,19,20,21,22,23,24,25,26,27,28,29,30,31,32,33"/>
  <line x1="332" x2="370.6666666666667" y1="501" y2="501" class="net_2,3,4,5,6,7,8,9,10,11,12,13,14,15,16,17,18,19,20,21,22,23,24,25,26,27,28,29,30,31,32,33"/>
  <line x1="40" x2="127" y1="673.5" y2="673.5" class="net_34,35,36,37,38,39,40,41,42,43,44,45,46,47,48,49,50,51,52,53,54,55,56,57,58,59,60,61,62,63,64,65"/>
  <line x1="127" x2="127" y1="673.5" y2="747.5" class="net_34,35,36,37,38,39,40,41,42,43,44,45,46,47,48,49,50,51,52,53,54,55,56,57,58,59,60,61,62,63,64,65"/>
  <circle cx="127" cy="747.5" r="2" style="fill:#000" class="net_34,35,36,37,38,39,40,41,42,43,44,45,46,47,48,49,50,51,52,53,54,55,56,57,58,59,60,61,62,63,64,65"/>
  <line x1="127" x2="192.33333333333334" y1="747.5" y2="747.5" class="net_34,35,36,37,38,39,40,41,42,43,44,45,46,47,48,49,50,51,52,53,54,55,56,57,58,59,60,61,62,63,64,65"/>
  <line x1="40" x2="52" y1="673.5" y2="673.5" class="net_34,35,36,37,38,39,40,41,42,43,44,45,46,47,48,49,50,51,52,53,54,55,56,57,58,59,60,61,62,63,64,65"/>
  <line x1="52" x2="52" y1="673.5" y2="92" class="net_34,35,36,37,38,39,40,41,42,43,44,45,46,47,48,49,50,51,52,53,54,55,56,57,58,59,60,61,62,63,64,65"/>
  <line x1="52" x2="147" y1="92" y2="92" class="net_34,35,36,37,38,39,40,41,42,43,44,45,46,47,48,49,50,51,52,53,54,55,56,57,58,59,60,61,62,63,64,65"/>
  <line x1="147" x2="147" y1="92" y2="32" class="net_34,35,36,37,38,39,40,41,42,43,44,45,46,47,48,49,50,51,52,53,54,55,56,57,58,59,60,61,62,63,64,65"/>
  <circle cx="52" cy="673.5" r="2" style="fill:#000" class="net_34,35,36,37,38,39,40,41,42,43,44,45,46,47,48,49,50,51,52,53,54,55,56,57,58,59,60,61,62,63,64,65"/>
  <circle cx="147" cy="92" r="2" style="fill:#000" class="net_34,35,36,37,38,39,40,41,42,43,44,45,46,47,48,49,50,51,52,53,54,55,56,57,58,59,60,61,62,63,64,65"/>
  <line x1="147" x2="368.6666666666667" y1="32" y2="32" class="net_34,35,36,37,38,39,40,41,42,43,44,45,46,47,48,49,50,51,52,53,54,55,56,57,58,59,60,61,62,63,64,65"/>
  <line x1="40" x2="192.33333333333334" y1="673.5" y2="673.5" class="net_34,35,36,37,38,39,40,41,42,43,44,45,46,47,48,49,50,51,52,53,54,55,56,57,58,59,60,61,62,63,64,65"/>
  <line x1="40" x2="127" y1="673.5" y2="673.5" class="net_34,35,36,37,38,39,40,41,42,43,44,45,46,47,48,49,50,51,52,53,54,55,56,57,58,59,60,61,62,63,64,65"/>
  <line x1="127" x2="127" y1="673.5" y2="361" class="net_34,35,36,37,38,39,40,41,42,43,44,45,46,47,48,49,50,51,52,53,54,55,56,57,58,59,60,61,62,63,64,65"/>
  <circle cx="127" cy="361" r="2" style="fill:#000" class="net_34,35,36,37,38,39,40,41,42,43,44,45,46,47,48,49,50,51,52,53,54,55,56,57,58,59,60,61,62,63,64,65"/>
  <line x1="127" x2="192.33333333333334" y1="361" y2="361" class="net_34,35,36,37,38,39,40,41,42,43,44,45,46,47,48,49,50,51,52,53,54,55,56,57,58,59,60,61,62,63,64,65"/>
  <line x1="40" x2="52" y1="673.5" y2="673.5" class="net_34,35,36,37,38,39,40,41,42,43,44,45,46,47,48,49,50,51,52,53,54,55,56,57,58,59,60,61,62,63,64,65"/>
  <line x1="52" x2="52" y1="673.5" y2="92" class="net_34,35,36,37,38,39,40,41,42,43,44,45,46,47,48,49,50,51,52,53,54,55,56,57,58,59,60,61,62,63,64,65"/>
  <line x1="52" x2="371.6666666666667" y1="92" y2="92" class="net_34,35,36,37,38,39,40,41,42,43,44,45,46,47,48,49,50,51,52,53,54,55,56,57,58,59,60,61,62,63,64,65"/>
  <line x1="40" x2="127" y1="673.5" y2="673.5" class="net_34,35,36,37,38,39,40,41,42,43,44,45,46,47,48,49,50,51,52,53,54,55,56,57,58,59,60,61,62,63,64,65"/>
  <line x1="127" x2="127" y1="673.5" y2="807.5" class="net_34,35,36,37,38,39,40,41,42,43,44,45,46,47,48,49,50,51,52,53,54,55,56,57,58,59,60,61,62,63,64,65"/>
  <line x1="127" x2="192.33333333333334" y1="807.5" y2="807.5" class="net_34,35,36,37,38,39,40,41,42,43,44,45,46,47,48,49,50,51,52,53,54,55,56,57,58,59,60,61,62,63,64,65"/>
  <line x1="40" x2="127" y1="673.5" y2="673.5" class="net_34,35,36,37,38,39,40,41,42,43,44,45,46,47,48,49,50,51,52,53,54,55,56,57,58,59,60,61,62,63,64,65"/>
  <line x1="127" x2="127" y1="673.5" y2="265" class="net_34,35,36,37,38,39,40,41,42,43,44,45,46,47,48,49,50,51,52,53,54,55,56,57,58,59,60,61,62,63,64,65"/>
  <line x1="127" x2="322" y1="265" y2="265" class="net_34,35,36,37,38,39,40,41,42,43,44,45,46,47,48,49,50,51,52,53,54,55,56,57,58,59,60,61,62,63,64,65"/>
  <line x1="322" x2="322" y1="265" y2="516" class="net_34,35,36,37,38,39,40,41,42,43,44,45,46,47,48,49,50,51,52,53,54,55,56,57,58,59,60,61,62,63,64,65"/>
  <circle cx="127" cy="673.5" r="2" style="fill:#000" class="net_34,35,36,37,38,39,40,41,42,43,44,45,46,47,48,49,50,51,52,53,54,55,56,57,58,59,60,61,62,63,64,65"/>
  <line x1="322" x2="370.6666666666667" y1="516" y2="516" class="net_34,35,36,37,38,39,40,41,42,43,44,45,46,47,48,49,50,51,52,53,54,55,56,57,58,59,60,61,62,63,64,65"/>
  <line x1="40" x2="52" y1="673.5" y2="673.5" class="net_34,35,36,37,38,39,40,41,42,43,44,45,46,47,48,49,50,51,52,53,54,55,56,57,58,59,60,61,62,63,64,65"/>
  <line x1="52" x2="52" y1="673.5" y2="663.5" class="net_34,35,36,37,38,39,40,41,42,43,44,45,46,47,48,49,50,51,52,53,54,55,56,57,58,59,60,61,62,63,64,65"/>
  <line x1="52" x2="83.5" y1="663.5" y2="663.5" class="net_34,35,36,37,38,39,40,41,42,43,44,45,46,47,48,49,50,51,52,53,54,55,56,57,58,59,60,61,62,63,64,65"/>
  <circle cx="52" cy="663.5" r="2" style="fill:#000" class="net_34,35,36,37,38,39,40,41,42,43,44,45,46,47,48,49,50,51,52,53,54,55,56,57,58,59,60,61,62,63,64,65"/>
  <line x1="83.5" x2="83.5" y1="663.5" y2="242" class="net_34,35,36,37,38,39,40,41,42,43,44,45,46,47,48,49,50,51,52,53,54,55,56,57,58,59,60,61,62,63,64,65"/>
  <line x1="511" x2="566" y1="586.5" y2="586.5" class="net_134,135,136,137,138,139,140,141,142,143,144,145,146,147,148,149,150,151,152,153,154,155,156,157,158,159,160,161,162,163,164,165,168,169,170,171,172,173,174,175,176,177,178,179,180,181,182,183,184,185,186,187,188,189,190,191,192,193,194,195,196,197,198,199,200,201,202,203,204,205,206,207,208,209,210,211,212,213,214,215,216,217,218,219,220,221,222,223,224,225,226,227,228,229,230,231,232,233,234,235,236,237,238,239,240,241,242,243,244,245,246,247,248,249,250,251,252,253,254,255,256,257,258,259,260,261,262,263,264,265,266,267,268,269,270,271,272,273,274,275,276,277,278,279,280,281,282,283,284,285,286,287,288,289,290,291,292,293,294,295,296,297,298,299,300,301,302,303,304,305,306,307,308,309,310,311,312,313,314,315,316,317,318,319,320,321,322,323,324,325,326,327,328,329,330,331,332,333,334,335,336,337,338,339,340,341,342,343,344,345,346,347,348,349,350,351,352,353,354,355,356,357,358,359,360,361,362,363,364,365,366,367,368,369,370,371,372,373,374,375,376,377,378,379,380,381,382,383,384,385,386,387,388,389,390,391"/>
  <line x1="514.1428571428571" x2="576" y1="1205" y2="1205" class="net_392,393,394,395,396,397,398,399"/>
  <line x1="576" x2="576" y1="1205" y2="591.5" class="net_392,393,394,395,396,397,398,399"/>
  <line x1="192" x2="282" y1="1062.5" y2="1062.5" class="net_66,67,68"/>
  <line x1="282" x2="282" y1="1062.5" y2="852.5" class="net_66,67,68"/>
  <circle cx="282" cy="1062.5" r="2" style="fill:#000" class="net_66,67,68"/>
  <line x1="282" x2="373.3333333333333" y1="852.5" y2="852.5" class="net_66,67,68"/>
  <line x1="192" x2="282" y1="1062.5" y2="1062.5" class="net_66,67,68"/>
  <line x1="282" x2="282" y1="1062.5" y2="917.5" class="net_66,67,68"/>
  <circle cx="282" cy="917.5" r="2" style="fill:#000" class="net_66,67,68"/>
  <line x1="282" x2="373.3333333333333" y1="917.5" y2="917.5" class="net_66,67,68"/>
  <line x1="192" x2="282" y1="1062.5" y2="1062.5" class="net_66,67,68"/>
  <line x1="282" x2="282" y1="1062.5" y2="982.5" class="net_66,67,68"/>
  <circle cx="282" cy="982.5" r="2" style="fill:#000" class="net_66,67,68"/>
  <line x1="282" x2="373.3333333333333" y1="982.5" y2="982.5" class="net_66,67,68"/>
  <line x1="192" x2="282" y1="1062.5" y2="1062.5" class="net_66,67,68"/>
  <line x1="282" x2="282" y1="1062.5" y2="1112.5" class="net_66,67,68"/>
  <circle cx="282" cy="1112.5" r="2" style="fill:#000" class="net_66,67,68"/>
  <line x1="282" x2="373.3333333333333" y1="1112.5" y2="1112.5" class="net_66,67,68"/>
  <line x1="192" x2="282" y1="1062.5" y2="1062.5" class="net_66,67,68"/>
  <line x1="282" x2="282" y1="1062.5" y2="1177.5" class="net_66,67,68"/>
  <circle cx="282" cy="1177.5" r="2" style="fill:#000" class="net_66,67,68"/>
  <line x1="282" x2="373.3333333333333" y1="1177.5" y2="1177.5" class="net_66,67,68"/>
  <line x1="192" x2="282" y1="1062.5" y2="1062.5" class="net_66,67,68"/>
  <line x1="282" x2="282" y1="1062.5" y2="1242.5" class="net_66,67,68"/>
  <circle cx="282" cy="1242.5" r="2" style="fill:#000" class="net_66,67,68"/>
  <line x1="282" x2="373.3333333333333" y1="1242.5" y2="1242.5" class="net_66,67,68"/>
  <line x1="192" x2="282" y1="1062.5" y2="1062.5" class="net_66,67,68"/>
  <line x1="282" x2="282" y1="1062.5" y2="1307.5" class="net_66,67,68"/>
  <circle cx="282" cy="1307.5" r="2" style="fill:#000" class="net_66,67,68"/>
  <line x1="282" x2="373.3333333333333" y1="1307.5" y2="1307.5" class="net_66,67,68"/>
  <line x1="192" x2="282" y1="1062.5" y2="1062.5" class="net_66,67,68"/>
  <line x1="282" x2="282" y1="1062.5" y2="1372.5" class="net_66,67,68"/>
  <line x1="282" x2="378.5" y1="1372.5" y2="1372.5" class="net_66,67,68"/>
  <line x1="194" x2="373.3333333333333" y1="867.5" y2="867.5" class="net_496,497,498"/>
  <line x1="194" x2="373.3333333333333" y1="932.5" y2="932.5" class="net_499,500,501"/>
  <line x1="194" x2="373.3333333333333" y1="997.5" y2="997.5" class="net_502,503,504"/>
  <line x1="194" x2="373.3333333333333" y1="1127.5" y2="1127.5" class="net_505,506,507"/>
  <line x1="194" x2="373.3333333333333" y1="1192.5" y2="1192.5" class="net_508,509,510"/>
  <line x1="194" x2="373.3333333333333" y1="1257.5" y2="1257.5" class="net_511,512,513"/>
  <line x1="194" x2="373.3333333333333" y1="1322.5" y2="1322.5" class="net_514,515,516"/>
  <line x1="88" x2="117" y1="231.5" y2="231.5" class="net_34,35,36,37,38"/>
  <line x1="117" x2="117" y1="231.5" y2="716.5" class="net_34,35,36,37,38"/>
  <circle cx="117" cy="231.5" r="2" style="fill:#000" class="net_34,35,36,37,38"/>
  <line x1="117" x2="349" y1="716.5" y2="716.5" class="net_34,35,36,37,38"/>
  <line x1="88" x2="117" y1="231.5" y2="231.5" class="net_34,35,36,37,38"/>
  <line x1="117" x2="117" y1="231.5" y2="143.5" class="net_34,35,36,37,38"/>
  <line x1="117" x2="170" y1="143.5" y2="143.5" class="net_34,35,36,37,38"/>
  <line x1="88" x2="164" y1="231.5" y2="231.5" class="net_34,35,36,37,38"/>
  <line x1="214.33333333333334" x2="292" y1="740" y2="740" class="net_102,103,104,105,106,107,108,109,110,111,112,113,114,115,116,117,118,119,120,121,122,123,124,125,126,127,128,129,130,131,132,133"/>
  <line x1="292" x2="292" y1="740" y2="780" class="net_102,103,104,105,106,107,108,109,110,111,112,113,114,115,116,117,118,119,120,121,122,123,124,125,126,127,128,129,130,131,132,133"/>
  <line x1="292" x2="372" y1="780" y2="780" class="net_102,103,104,105,106,107,108,109,110,111,112,113,114,115,116,117,118,119,120,121,122,123,124,125,126,127,128,129,130,131,132,133"/>
  <line x1="214.33333333333334" x2="372" y1="800" y2="800" class="net_464,465,466,467,468,469,470,471,472,473,474,475,476,477,478,479,480,481,482,483,484,485,486,487,488,489,490,491,492,493,494,495"/>
  <line x1="192" x2="282" y1="486" y2="486" class="net_69"/>
  <line x1="282" x2="282" y1="486" y2="820" class="net_69"/>
  <line x1="282" x2="382" y1="820" y2="820" class="net_69"/>
  <circle cx="282" cy="486" r="2" style="fill:#000" class="net_69"/>
  <line x1="382" x2="382" y1="820" y2="805" class="net_69"/>
  <line x1="192" x2="382" y1="486" y2="486" class="net_69"/>
  <line x1="382" x2="382" y1="486" y2="216.5" class="net_69"/>
  <line x1="194" x2="312" y1="296" y2="296" class="net_517,518,519,520,521,522,523,524,525,526,527,528,529,530,531,532,533,534,535,536,537,538,539,540,541,542,543,544,545,546,547,548"/>
  <line x1="312" x2="312" y1="296" y2="626" class="net_517,518,519,520,521,522,523,524,525,526,527,528,529,530,531,532,533,534,535,536,537,538,539,540,541,542,543,544,545,546,547,548"/>
  <line x1="312" x2="372" y1="626" y2="626" class="net_517,518,519,520,521,522,523,524,525,526,527,528,529,530,531,532,533,534,535,536,537,538,539,540,541,542,543,544,545,546,547,548"/>
  <line x1="194" x2="312" y1="296" y2="296" class="net_517,518,519,520,521,522,523,524,525,526,527,528,529,530,531,532,533,534,535,536,537,538,539,540,541,542,543,544,545,546,547,548"/>
  <line x1="312" x2="312" y1="296" y2="566" class="net_517,518,519,520,521,522,523,524,525,526,527,528,529,530,531,532,533,534,535,536,537,538,539,540,541,542,543,544,545,546,547,548"/>
  <circle cx="312" cy="566" r="2" style="fill:#000" class="net_517,518,519,520,521,522,523,524,525,526,527,528,529,530,531,532,533,534,535,536,537,538,539,540,541,542,543,544,545,546,547,548"/>
  <line x1="312" x2="372" y1="566" y2="566" class="net_517,518,519,520,521,522,523,524,525,526,527,528,529,530,531,532,533,534,535,536,537,538,539,540,541,542,543,544,545,546,547,548"/>
  <line x1="194" x2="292" y1="421" y2="421" class="net_549,550,551,552,553,554,555,556,557,558,559,560,561,562,563,564,565,566,567,568,569,570,571,572,573,574,575,576,577,578,579,580"/>
  <line x1="292" x2="292" y1="421" y2="646" class="net_549,550,551,552,553,554,555,556,557,558,559,560,561,562,563,564,565,566,567,568,569,570,571,572,573,574,575,576,577,578,579,580"/>
  <line x1="292" x2="372" y1="646" y2="646" class="net_549,550,551,552,553,554,555,556,557,558,559,560,561,562,563,564,565,566,567,568,569,570,571,572,573,574,575,576,577,578,579,580"/>
  <line x1="194" x2="292" y1="421" y2="421" class="net_549,550,551,552,553,554,555,556,557,558,559,560,561,562,563,564,565,566,567,568,569,570,571,572,573,574,575,576,577,578,579,580"/>
  <line x1="292" x2="292" y1="421" y2="586" class="net_549,550,551,552,553,554,555,556,557,558,559,560,561,562,563,564,565,566,567,568,569,570,571,572,573,574,575,576,577,578,579,580"/>
  <circle cx="292" cy="586" r="2" style="fill:#000" class="net_549,550,551,552,553,554,555,556,557,558,559,560,561,562,563,564,565,566,567,568,569,570,571,572,573,574,575,576,577,578,579,580"/>
  <line x1="292" x2="372" y1="586" y2="586" class="net_549,550,551,552,553,554,555,556,557,558,559,560,561,562,563,564,565,566,567,568,569,570,571,572,573,574,575,576,577,578,579,580"/>
  <line x1="214.33333333333334" x2="382" y1="666" y2="666" class="net_166"/>
  <line x1="382" x2="382" y1="666" y2="651" class="net_166"/>
  <line x1="214.33333333333334" x2="302" y1="353.5" y2="353.5" class="net_167"/>
  <line x1="302" x2="302" y1="353.5" y2="606" class="net_167"/>
  <line x1="302" x2="382" y1="606" y2="606" class="net_167"/>
  <line x1="382" x2="382" y1="606" y2="591" class="net_167"/>
  <line x1="201" x2="282" y1="123.5" y2="123.5" class="net_400,401,402,403,404,405,406,407,408,409,410,411,412,413,414,415,416,417,418,419,420,421,422,423,424,425,426,427,428,429,430,431"/>
  <line x1="282" x2="282" y1="123.5" y2="191.5" class="net_400,401,402,403,404,405,406,407,408,409,410,411,412,413,414,415,416,417,418,419,420,421,422,423,424,425,426,427,428,429,430,431"/>
  <line x1="282" x2="372" y1="191.5" y2="191.5" class="net_400,401,402,403,404,405,406,407,408,409,410,411,412,413,414,415,416,417,418,419,420,421,422,423,424,425,426,427,428,429,430,431"/>
  <line x1="195" x2="372" y1="211.5" y2="211.5" class="net_432,433,434,435,436,437,438,439,440,441,442,443,444,445,446,447,448,449,450,451,452,453,454,455,456,457,458,459,460,461,462,463"/>
  <line x1="586" x2="621" y1="576.5" y2="576.5" class="net_70,71,72,73,74,75,76,77,78,79,80,81,82,83,84,85,86,87,88,89,90,91,92,93,94,95,96,97,98,99,100,101"/>
  <line x1="398.6666666666667" x2="505.5" y1="24.5" y2="24.5" class="net_134,135,136,137,138,139,140,141,142,143,144,145,146,147,148,149,150,151,152,153,154,155,156,157,158,159,160,161,162,163,164,165"/>
  <line x1="505.5" x2="505.5" y1="24.5" y2="576" class="net_134,135,136,137,138,139,140,141,142,143,144,145,146,147,148,149,150,151,152,153,154,155,156,157,158,159,160,161,162,163,164,165"/>
  <line x1="398.6666666666667" x2="495" y1="84.5" y2="84.5" class="net_168,169,170,171,172,173,174,175,176,177,178,179,180,181,182,183,184,185,186,187,188,189,190,191,192,193,194,195,196,197,198,199"/>
  <line x1="495" x2="495" y1="84.5" y2="596.5" class="net_168,169,170,171,172,173,174,175,176,177,178,179,180,181,182,183,184,185,186,187,188,189,190,191,192,193,194,195,196,197,198,199"/>
  <line x1="495" x2="505" y1="596.5" y2="596.5" class="net_168,169,170,171,172,173,174,175,176,177,178,179,180,181,182,183,184,185,186,187,188,189,190,191,192,193,194,195,196,197,198,199"/>
  <line x1="392" x2="485" y1="201.5" y2="201.5" class="net_200,201,202,203,204,205,206,207,208,209,210,211,212,213,214,215,216,217,218,219,220,221,222,223,224,225,226,227,228,229,230,231"/>
  <line x1="485" x2="485" y1="201.5" y2="616.5" class="net_200,201,202,203,204,205,206,207,208,209,210,211,212,213,214,215,216,217,218,219,220,221,222,223,224,225,226,227,228,229,230,231"/>
  <line x1="485" x2="505" y1="616.5" y2="616.5" class="net_200,201,202,203,204,205,206,207,208,209,210,211,212,213,214,215,216,217,218,219,220,221,222,223,224,225,226,227,228,229,230,231"/>
  <line x1="400.6666666666667" x2="475" y1="508.5" y2="508.5" class="net_232,233,234,235,236,237,238,239,240,241,242,243,244,245,246,247,248,249,250,251,252,253,254,255,256,257,258,259,260,261,262,263"/>
  <line x1="475" x2="475" y1="508.5" y2="636.5" class="net_232,233,234,235,236,237,238,239,240,241,242,243,244,245,246,247,248,249,250,251,252,253,254,255,256,257,258,259,260,261,262,263"/>
  <line x1="475" x2="505" y1="636.5" y2="636.5" class="net_232,233,234,235,236,237,238,239,240,241,242,243,244,245,246,247,248,249,250,251,252,253,254,255,256,257,258,259,260,261,262,263"/>
  <line x1="392" x2="465" y1="576" y2="576" class="net_264,265,266,267,268,269,270,271,272,273,274,275,276,277,278,279,280,281,282,283,284,285,286,287,288,289,290,291,292,293,294,295"/>
  <line x1="465" x2="465" y1="576" y2="656.5" class="net_264,265,266,267,268,269,270,271,272,273,274,275,276,277,278,279,280,281,282,283,284,285,286,287,288,289,290,291,292,293,294,295"/>
  <line x1="465" x2="505" y1="656.5" y2="656.5" class="net_264,265,266,267,268,269,270,271,272,273,274,275,276,277,278,279,280,281,282,283,284,285,286,287,288,289,290,291,292,293,294,295"/>
  <line x1="392" x2="455" y1="636" y2="636" class="net_296,297,298,299,300,301,302,303,304,305,306,307,308,309,310,311,312,313,314,315,316,317,318,319,320,321,322,323,324,325,326,327"/>
  <line x1="455" x2="455" y1="636" y2="676.5" class="net_296,297,298,299,300,301,302,303,304,305,306,307,308,309,310,311,312,313,314,315,316,317,318,319,320,321,322,323,324,325,326,327"/>
  <line x1="455" x2="505" y1="676.5" y2="676.5" class="net_296,297,298,299,300,301,302,303,304,305,306,307,308,309,310,311,312,313,314,315,316,317,318,319,320,321,322,323,324,325,326,327"/>
  <line x1="380" x2="505" y1="696.5" y2="696.5" class="net_328,329,330,331,332,333,334,335,336,337,338,339,340,341,342,343,344,345,346,347,348,349,350,351,352,353,354,355,356,357,358,359"/>
  <line x1="392" x2="505.5" y1="790" y2="790" class="net_360,361,362,363,364,365,366,367,368,369,370,371,372,373,374,375,376,377,378,379,380,381,382,383,384,385,386,387,388,389,390,391"/>
  <line x1="505.5" x2="505.5" y1="790" y2="717" class="net_360,361,362,363,364,365,366,367,368,369,370,371,372,373,374,375,376,377,378,379,380,381,382,383,384,385,386,387,388,389,390,391"/>
  <line x1="395.3333333333333" x2="508.64285714285717" y1="860" y2="860" class="net_392"/>
  <line x1="508.64285714285717" x2="508.64285714285717" y1="860" y2="1194.5" class="net_392"/>
  <line x1="395.3333333333333" x2="495" y1="925" y2="925" class="net_393"/>
  <line x1="495" x2="495" y1="925" y2="1215" class="net_393"/>
  <line x1="495" x2="508.14285714285717" y1="1215" y2="1215" class="net_393"/>
  <line x1="395.3333333333333" x2="485" y1="990" y2="990" class="net_394"/>
  <line x1="485" x2="485" y1="990" y2="1235" class="net_394"/>
  <line x1="485" x2="508.14285714285717" y1="1235" y2="1235" class="net_394"/>
  <line x1="395.3333333333333" x2="475" y1="1120" y2="1120" class="net_395"/>
  <line x1="475" x2="475" y1="1120" y2="1255" class="net_395"/>
  <line x1="475" x2="508.14285714285717" y1="1255" y2="1255" class="net_395"/>
  <line x1="395.3333333333333" x2="465" y1="1185" y2="1185" class="net_396"/>
  <line x1="465" x2="465" y1="1185" y2="1275" class="net_396"/>
  <line x1="465" x2="508.14285714285717" y1="1275" y2="1275" class="net_396"/>
  <line x1="395.3333333333333" x2="455" y1="1250" y2="1250" class="net_397"/>
  <line x1="455" x2="455" y1="1250" y2="1295" class="net_397"/>
  <line x1="455" x2="508.14285714285717" y1="1295" y2="1295" class="net_397"/>
  <line x1="395.3333333333333" x2="508.14285714285717" y1="1315" y2="1315" class="net_398"/>
  <line x1="403.5" x2="508.64285714285717" y1="1372.5" y2="1372.5" class="net_399"/>
  <line x1="508.64285714285717" x2="508.64285714285717" y1="1372.5" y2="1335.5" class="net_399"/>
</svg>
